<svg width="118" height="96" viewBox="0 0 118 96" fill="none" xmlns="http://www.w3.org/2000/svg">
<g opacity="0.3">
<mask id="mask0_1_11" style="mask-type:alpha" maskUnits="userSpaceOnUse" x="0" y="0" width="11" height="10">
<path d="M5.18113 9.60907C8.04259 9.60907 10.3623 7.45796 10.3623 4.8045C10.3623 2.15104 8.04259 0 5.18113 0C2.31967 0 0 2.15104 0 4.8045C0 7.45796 2.31967 9.60907 5.18113 9.60907Z" fill="url(#paint0_linear_1_11)"/>
</mask>
<g mask="url(#mask0_1_11)">
<path d="M5.18113 9.60907C8.04259 9.60907 10.3623 7.45796 10.3623 4.8045C10.3623 2.15104 8.04259 0 5.18113 0C2.31967 0 0 2.15104 0 4.8045C0 7.45796 2.31967 9.60907 5.18113 9.60907Z" fill="url(#paint1_linear_1_11)"/>
</g>
<mask id="mask1_1_11" style="mask-type:alpha" maskUnits="userSpaceOnUse" x="30" y="0" width="11" height="10">
<path d="M35.188 9.60907C38.0495 9.60907 40.3692 7.45796 40.3692 4.8045C40.3692 2.15104 38.0495 0 35.188 0C32.3266 0 30.0069 2.15104 30.0069 4.8045C30.0069 7.45796 32.3266 9.60907 35.188 9.60907Z" fill="url(#paint2_linear_1_11)"/>
</mask>
<g mask="url(#mask1_1_11)">
<path d="M35.1886 9.60907C38.0501 9.60907 40.3698 7.45796 40.3698 4.8045C40.3698 2.15104 38.0501 0 35.1886 0C32.3272 0 30.0075 2.15104 30.0075 4.8045C30.0075 7.45796 32.3272 9.60907 35.1886 9.60907Z" fill="url(#paint3_linear_1_11)"/>
</g>
<mask id="mask2_1_11" style="mask-type:alpha" maskUnits="userSpaceOnUse" x="60" y="0" width="11" height="10">
<path d="M65.1949 9.60907C68.0563 9.60907 70.376 7.45796 70.376 4.8045C70.376 2.15104 68.0563 0 65.1949 0C62.3334 0 60.0137 2.15104 60.0137 4.8045C60.0137 7.45796 62.3334 9.60907 65.1949 9.60907Z" fill="url(#paint4_linear_1_11)"/>
</mask>
<g mask="url(#mask2_1_11)">
<path d="M65.1959 9.60907C68.0574 9.60907 70.377 7.45796 70.377 4.8045C70.377 2.15104 68.0574 0 65.1959 0C62.3344 0 60.0148 2.15104 60.0148 4.8045C60.0148 7.45796 62.3344 9.60907 65.1959 9.60907Z" fill="url(#paint5_linear_1_11)"/>
</g>
<mask id="mask3_1_11" style="mask-type:alpha" maskUnits="userSpaceOnUse" x="90" y="0" width="11" height="10">
<path d="M95.2017 9.60907C98.0631 9.60907 100.383 7.45796 100.383 4.8045C100.383 2.15104 98.0631 0 95.2017 0C92.3402 0 90.0205 2.15104 90.0205 4.8045C90.0205 7.45796 92.3402 9.60907 95.2017 9.60907Z" fill="url(#paint6_linear_1_11)"/>
</mask>
<g mask="url(#mask3_1_11)">
<path d="M95.2025 9.60907C98.064 9.60907 100.384 7.45796 100.384 4.8045C100.384 2.15104 98.064 0 95.2025 0C92.341 0 90.0214 2.15104 90.0214 4.8045C90.0214 7.45796 92.341 9.60907 95.2025 9.60907Z" fill="url(#paint7_linear_1_11)"/>
</g>
<mask id="mask4_1_11" style="mask-type:alpha" maskUnits="userSpaceOnUse" x="0" y="24" width="11" height="10">
<path d="M5.18113 33.7317C8.04259 33.7317 10.3623 31.5806 10.3623 28.9272C10.3623 26.2737 8.04259 24.1227 5.18113 24.1227C2.31967 24.1227 0 26.2737 0 28.9272C0 31.5806 2.31967 33.7317 5.18113 33.7317Z" fill="url(#paint8_linear_1_11)"/>
</mask>
<g mask="url(#mask4_1_11)">
<path d="M5.18113 33.7317C8.04259 33.7317 10.3623 31.5807 10.3623 28.9272C10.3623 26.2738 8.04259 24.1227 5.18113 24.1227C2.31967 24.1227 0 26.2738 0 28.9272C0 31.5807 2.31967 33.7317 5.18113 33.7317Z" fill="url(#paint9_linear_1_11)"/>
</g>
<mask id="mask5_1_11" style="mask-type:alpha" maskUnits="userSpaceOnUse" x="30" y="24" width="11" height="10">
<path d="M35.188 33.7318C38.0495 33.7318 40.3692 31.5807 40.3692 28.9273C40.3692 26.2738 38.0495 24.1228 35.188 24.1228C32.3266 24.1228 30.0069 26.2738 30.0069 28.9273C30.0069 31.5807 32.3266 33.7318 35.188 33.7318Z" fill="url(#paint10_linear_1_11)"/>
</mask>
<g mask="url(#mask5_1_11)">
<path d="M35.1886 33.7317C38.0501 33.7317 40.3698 31.5806 40.3698 28.9272C40.3698 26.2737 38.0501 24.1227 35.1886 24.1227C32.3272 24.1227 30.0075 26.2737 30.0075 28.9272C30.0075 31.5806 32.3272 33.7317 35.1886 33.7317Z" fill="url(#paint11_linear_1_11)"/>
</g>
<mask id="mask6_1_11" style="mask-type:alpha" maskUnits="userSpaceOnUse" x="60" y="24" width="11" height="10">
<path d="M65.1949 33.7318C68.0563 33.7318 70.376 31.5807 70.376 28.9273C70.376 26.2738 68.0563 24.1228 65.1949 24.1228C62.3334 24.1228 60.0137 26.2738 60.0137 28.9273C60.0137 31.5807 62.3334 33.7318 65.1949 33.7318Z" fill="url(#paint12_linear_1_11)"/>
</mask>
<g mask="url(#mask6_1_11)">
<path d="M65.1959 33.7317C68.0574 33.7317 70.377 31.5806 70.377 28.9272C70.377 26.2737 68.0574 24.1227 65.1959 24.1227C62.3344 24.1227 60.0148 26.2737 60.0148 28.9272C60.0148 31.5806 62.3344 33.7317 65.1959 33.7317Z" fill="url(#paint13_linear_1_11)"/>
</g>
<mask id="mask7_1_11" style="mask-type:alpha" maskUnits="userSpaceOnUse" x="90" y="24" width="11" height="10">
<path d="M95.2017 33.7318C98.0631 33.7318 100.383 31.5807 100.383 28.9273C100.383 26.2738 98.0631 24.1228 95.2017 24.1228C92.3402 24.1228 90.0205 26.2738 90.0205 28.9273C90.0205 31.5807 92.3402 33.7318 95.2017 33.7318Z" fill="url(#paint14_linear_1_11)"/>
</mask>
<g mask="url(#mask7_1_11)">
<path d="M95.2025 33.7317C98.064 33.7317 100.384 31.5807 100.384 28.9272C100.384 26.2738 98.064 24.1227 95.2025 24.1227C92.341 24.1227 90.0214 26.2738 90.0214 28.9272C90.0214 31.5807 92.341 33.7317 95.2025 33.7317Z" fill="url(#paint15_linear_1_11)"/>
</g>
<mask id="mask8_1_11" style="mask-type:alpha" maskUnits="userSpaceOnUse" x="0" y="48" width="11" height="10">
<path d="M5.18113 57.8045C8.04259 57.8045 10.3623 55.6534 10.3623 52.9999C10.3623 50.3465 8.04259 48.1954 5.18113 48.1954C2.31967 48.1954 0 50.3465 0 52.9999C0 55.6534 2.31967 57.8045 5.18113 57.8045Z" fill="url(#paint16_linear_1_11)"/>
</mask>
<g mask="url(#mask8_1_11)">
<path d="M5.18113 57.8046C8.04259 57.8046 10.3623 55.6535 10.3623 53C10.3623 50.3466 8.04259 48.1955 5.18113 48.1955C2.31967 48.1955 0 50.3466 0 53C0 55.6535 2.31967 57.8046 5.18113 57.8046Z" fill="url(#paint17_linear_1_11)"/>
</g>
<mask id="mask9_1_11" style="mask-type:alpha" maskUnits="userSpaceOnUse" x="30" y="48" width="11" height="10">
<path d="M35.188 57.8048C38.0495 57.8048 40.3692 55.6538 40.3692 53.0003C40.3692 50.3468 38.0495 48.1957 35.188 48.1957C32.3266 48.1957 30.0069 50.3468 30.0069 53.0003C30.0069 55.6538 32.3266 57.8048 35.188 57.8048Z" fill="url(#paint18_linear_1_11)"/>
</mask>
<g mask="url(#mask9_1_11)">
<path d="M35.1886 57.8045C38.0501 57.8045 40.3698 55.6534 40.3698 52.9999C40.3698 50.3465 38.0501 48.1954 35.1886 48.1954C32.3272 48.1954 30.0075 50.3465 30.0075 52.9999C30.0075 55.6534 32.3272 57.8045 35.1886 57.8045Z" fill="url(#paint19_linear_1_11)"/>
</g>
<mask id="mask10_1_11" style="mask-type:alpha" maskUnits="userSpaceOnUse" x="60" y="48" width="11" height="10">
<path d="M65.1949 57.8048C68.0563 57.8048 70.376 55.6538 70.376 53.0003C70.376 50.3468 68.0563 48.1957 65.1949 48.1957C62.3334 48.1957 60.0137 50.3468 60.0137 53.0003C60.0137 55.6538 62.3334 57.8048 65.1949 57.8048Z" fill="url(#paint20_linear_1_11)"/>
</mask>
<g mask="url(#mask10_1_11)">
<path d="M65.1958 57.8046C68.0572 57.8046 70.3769 55.6535 70.3769 53C70.3769 50.3466 68.0572 48.1955 65.1958 48.1955C62.3343 48.1955 60.0146 50.3466 60.0146 53C60.0146 55.6535 62.3343 57.8046 65.1958 57.8046Z" fill="url(#paint21_linear_1_11)"/>
</g>
<mask id="mask11_1_11" style="mask-type:alpha" maskUnits="userSpaceOnUse" x="90" y="48" width="11" height="10">
<path d="M95.2017 57.8048C98.0631 57.8048 100.383 55.6538 100.383 53.0003C100.383 50.3468 98.0631 48.1957 95.2017 48.1957C92.3402 48.1957 90.0205 50.3468 90.0205 53.0003C90.0205 55.6538 92.3402 57.8048 95.2017 57.8048Z" fill="url(#paint22_linear_1_11)"/>
</mask>
<g mask="url(#mask11_1_11)">
<path d="M95.2024 57.8046C98.0639 57.8046 100.384 55.6535 100.384 53.0001C100.384 50.3466 98.0639 48.1955 95.2024 48.1955C92.341 48.1955 90.0213 50.3466 90.0213 53.0001C90.0213 55.6535 92.341 57.8046 95.2024 57.8046Z" fill="url(#paint23_linear_1_11)"/>
</g>
<mask id="mask12_1_11" style="mask-type:alpha" maskUnits="userSpaceOnUse" x="0" y="72" width="11" height="10">
<path d="M5.18113 81.9276C8.04259 81.9276 10.3623 79.7765 10.3623 77.1231C10.3623 74.4696 8.04259 72.3186 5.18113 72.3186C2.31967 72.3186 0 74.4696 0 77.1231C0 79.7765 2.31967 81.9276 5.18113 81.9276Z" fill="url(#paint24_linear_1_11)"/>
</mask>
<g mask="url(#mask12_1_11)">
<path d="M5.18113 81.9273C8.04259 81.9273 10.3623 79.7762 10.3623 77.1227C10.3623 74.4693 8.04259 72.3182 5.18113 72.3182C2.31967 72.3182 0 74.4693 0 77.1227C0 79.7762 2.31967 81.9273 5.18113 81.9273Z" fill="url(#paint25_linear_1_11)"/>
</g>
<mask id="mask13_1_11" style="mask-type:alpha" maskUnits="userSpaceOnUse" x="30" y="72" width="11" height="10">
<path d="M35.188 81.9276C38.0495 81.9276 40.3692 79.7765 40.3692 77.1231C40.3692 74.4696 38.0495 72.3186 35.188 72.3186C32.3266 72.3186 30.0069 74.4696 30.0069 77.1231C30.0069 79.7765 32.3266 81.9276 35.188 81.9276Z" fill="url(#paint26_linear_1_11)"/>
</mask>
<g mask="url(#mask13_1_11)">
<path d="M35.1885 81.9273C38.05 81.9273 40.3697 79.7762 40.3697 77.1227C40.3697 74.4692 38.05 72.3182 35.1885 72.3182C32.3271 72.3182 30.0074 74.4692 30.0074 77.1227C30.0074 79.7762 32.3271 81.9273 35.1885 81.9273Z" fill="url(#paint27_linear_1_11)"/>
</g>
<mask id="mask14_1_11" style="mask-type:alpha" maskUnits="userSpaceOnUse" x="60" y="72" width="11" height="10">
<path d="M65.1949 81.9276C68.0563 81.9276 70.376 79.7765 70.376 77.1231C70.376 74.4696 68.0563 72.3186 65.1949 72.3186C62.3334 72.3186 60.0137 74.4696 60.0137 77.1231C60.0137 79.7765 62.3334 81.9276 65.1949 81.9276Z" fill="url(#paint28_linear_1_11)"/>
</mask>
<g mask="url(#mask14_1_11)">
<path d="M65.1959 81.9273C68.0574 81.9273 70.377 79.7762 70.377 77.1227C70.377 74.4692 68.0574 72.3182 65.1959 72.3182C62.3344 72.3182 60.0148 74.4692 60.0148 77.1227C60.0148 79.7762 62.3344 81.9273 65.1959 81.9273Z" fill="url(#paint29_linear_1_11)"/>
</g>
<mask id="mask15_1_11" style="mask-type:alpha" maskUnits="userSpaceOnUse" x="90" y="72" width="11" height="10">
<path d="M95.2017 81.9276C98.0631 81.9276 100.383 79.7765 100.383 77.1231C100.383 74.4696 98.0631 72.3186 95.2017 72.3186C92.3402 72.3186 90.0205 74.4696 90.0205 77.1231C90.0205 79.7765 92.3402 81.9276 95.2017 81.9276Z" fill="url(#paint30_linear_1_11)"/>
</mask>
<g mask="url(#mask15_1_11)">
<path d="M95.2025 81.9273C98.064 81.9273 100.384 79.7762 100.384 77.1227C100.384 74.4693 98.064 72.3182 95.2025 72.3182C92.341 72.3182 90.0214 74.4693 90.0214 77.1227C90.0214 79.7762 92.341 81.9273 95.2025 81.9273Z" fill="url(#paint31_linear_1_11)"/>
</g>
</g>
<defs>
<linearGradient id="paint0_linear_1_11" x1="50.4592" y1="111.385" x2="-11.8801" y2="-59.265" gradientUnits="userSpaceOnUse">
<stop stop-color="#FFA434"/>
<stop offset="1" stop-color="#FFA434"/>
</linearGradient>
<linearGradient id="paint1_linear_1_11" x1="50.4592" y1="111.385" x2="-11.8801" y2="-59.265" gradientUnits="userSpaceOnUse">
<stop stop-color="#FFA434"/>
<stop offset="1" stop-color="#FFA434"/>
</linearGradient>
<linearGradient id="paint2_linear_1_11" x1="80.4662" y1="111.385" x2="18.1269" y2="-59.2651" gradientUnits="userSpaceOnUse">
<stop stop-color="#FFA434"/>
<stop offset="1" stop-color="#FFA434"/>
</linearGradient>
<linearGradient id="paint3_linear_1_11" x1="80.4668" y1="111.385" x2="18.1275" y2="-59.2651" gradientUnits="userSpaceOnUse">
<stop stop-color="#FFA434"/>
<stop offset="1" stop-color="#FFA434"/>
</linearGradient>
<linearGradient id="paint4_linear_1_11" x1="110.473" y1="111.385" x2="48.1338" y2="-59.2651" gradientUnits="userSpaceOnUse">
<stop stop-color="#FFA434"/>
<stop offset="1" stop-color="#FFA434"/>
</linearGradient>
<linearGradient id="paint5_linear_1_11" x1="110.474" y1="111.385" x2="48.1348" y2="-59.2651" gradientUnits="userSpaceOnUse">
<stop stop-color="#FFA434"/>
<stop offset="1" stop-color="#FFA434"/>
</linearGradient>
<linearGradient id="paint6_linear_1_11" x1="140.48" y1="111.385" x2="78.1405" y2="-59.2651" gradientUnits="userSpaceOnUse">
<stop stop-color="#FFA434"/>
<stop offset="1" stop-color="#FFA434"/>
</linearGradient>
<linearGradient id="paint7_linear_1_11" x1="140.481" y1="111.385" x2="78.1414" y2="-59.2651" gradientUnits="userSpaceOnUse">
<stop stop-color="#FFA434"/>
<stop offset="1" stop-color="#FFA434"/>
</linearGradient>
<linearGradient id="paint8_linear_1_11" x1="50.4592" y1="135.507" x2="-11.879" y2="-35.1421" gradientUnits="userSpaceOnUse">
<stop stop-color="#FFA434"/>
<stop offset="1" stop-color="#FFA434"/>
</linearGradient>
<linearGradient id="paint9_linear_1_11" x1="50.4592" y1="135.507" x2="-11.879" y2="-35.1421" gradientUnits="userSpaceOnUse">
<stop stop-color="#FFA434"/>
<stop offset="1" stop-color="#FFA434"/>
</linearGradient>
<linearGradient id="paint10_linear_1_11" x1="80.4662" y1="135.507" x2="18.128" y2="-35.1421" gradientUnits="userSpaceOnUse">
<stop stop-color="#FFA434"/>
<stop offset="1" stop-color="#FFA434"/>
</linearGradient>
<linearGradient id="paint11_linear_1_11" x1="80.4668" y1="135.507" x2="18.1286" y2="-35.1422" gradientUnits="userSpaceOnUse">
<stop stop-color="#FFA434"/>
<stop offset="1" stop-color="#FFA434"/>
</linearGradient>
<linearGradient id="paint12_linear_1_11" x1="110.473" y1="135.507" x2="48.1348" y2="-35.1421" gradientUnits="userSpaceOnUse">
<stop stop-color="#FFA434"/>
<stop offset="1" stop-color="#FFA434"/>
</linearGradient>
<linearGradient id="paint13_linear_1_11" x1="110.474" y1="135.507" x2="48.1359" y2="-35.1422" gradientUnits="userSpaceOnUse">
<stop stop-color="#FFA434"/>
<stop offset="1" stop-color="#FFA434"/>
</linearGradient>
<linearGradient id="paint14_linear_1_11" x1="140.48" y1="135.507" x2="78.1416" y2="-35.1421" gradientUnits="userSpaceOnUse">
<stop stop-color="#FFA434"/>
<stop offset="1" stop-color="#FFA434"/>
</linearGradient>
<linearGradient id="paint15_linear_1_11" x1="140.481" y1="135.507" x2="78.1425" y2="-35.1421" gradientUnits="userSpaceOnUse">
<stop stop-color="#FFA434"/>
<stop offset="1" stop-color="#FFA434"/>
</linearGradient>
<linearGradient id="paint16_linear_1_11" x1="50.4592" y1="159.58" x2="-11.8801" y2="-11.0696" gradientUnits="userSpaceOnUse">
<stop stop-color="#FFA434"/>
<stop offset="1" stop-color="#FFA434"/>
</linearGradient>
<linearGradient id="paint17_linear_1_11" x1="50.4592" y1="159.581" x2="-11.8801" y2="-11.0695" gradientUnits="userSpaceOnUse">
<stop stop-color="#FFA434"/>
<stop offset="1" stop-color="#FFA434"/>
</linearGradient>
<linearGradient id="paint18_linear_1_11" x1="80.4662" y1="159.581" x2="18.1269" y2="-11.0693" gradientUnits="userSpaceOnUse">
<stop stop-color="#FFA434"/>
<stop offset="1" stop-color="#FFA434"/>
</linearGradient>
<linearGradient id="paint19_linear_1_11" x1="80.4668" y1="159.58" x2="18.1275" y2="-11.0697" gradientUnits="userSpaceOnUse">
<stop stop-color="#FFA434"/>
<stop offset="1" stop-color="#FFA434"/>
</linearGradient>
<linearGradient id="paint20_linear_1_11" x1="110.473" y1="159.581" x2="48.1338" y2="-11.0693" gradientUnits="userSpaceOnUse">
<stop stop-color="#FFA434"/>
<stop offset="1" stop-color="#FFA434"/>
</linearGradient>
<linearGradient id="paint21_linear_1_11" x1="110.474" y1="159.581" x2="48.1347" y2="-11.0696" gradientUnits="userSpaceOnUse">
<stop stop-color="#FFA434"/>
<stop offset="1" stop-color="#FFA434"/>
</linearGradient>
<linearGradient id="paint22_linear_1_11" x1="140.48" y1="159.581" x2="78.1405" y2="-11.0693" gradientUnits="userSpaceOnUse">
<stop stop-color="#FFA434"/>
<stop offset="1" stop-color="#FFA434"/>
</linearGradient>
<linearGradient id="paint23_linear_1_11" x1="140.481" y1="159.581" x2="78.1413" y2="-11.0695" gradientUnits="userSpaceOnUse">
<stop stop-color="#FFA434"/>
<stop offset="1" stop-color="#FFA434"/>
</linearGradient>
<linearGradient id="paint24_linear_1_11" x1="50.4592" y1="183.704" x2="-11.8801" y2="13.0536" gradientUnits="userSpaceOnUse">
<stop stop-color="#FFA434"/>
<stop offset="1" stop-color="#FFA434"/>
</linearGradient>
<linearGradient id="paint25_linear_1_11" x1="50.4592" y1="183.703" x2="-11.8801" y2="13.0532" gradientUnits="userSpaceOnUse">
<stop stop-color="#FFA434"/>
<stop offset="1" stop-color="#FFA434"/>
</linearGradient>
<linearGradient id="paint26_linear_1_11" x1="80.4662" y1="183.704" x2="18.1269" y2="13.0535" gradientUnits="userSpaceOnUse">
<stop stop-color="#FFA434"/>
<stop offset="1" stop-color="#FFA434"/>
</linearGradient>
<linearGradient id="paint27_linear_1_11" x1="80.4666" y1="183.703" x2="18.1274" y2="13.0531" gradientUnits="userSpaceOnUse">
<stop stop-color="#FFA434"/>
<stop offset="1" stop-color="#FFA434"/>
</linearGradient>
<linearGradient id="paint28_linear_1_11" x1="110.473" y1="183.704" x2="48.1338" y2="13.0535" gradientUnits="userSpaceOnUse">
<stop stop-color="#FFA434"/>
<stop offset="1" stop-color="#FFA434"/>
</linearGradient>
<linearGradient id="paint29_linear_1_11" x1="110.474" y1="183.703" x2="48.1348" y2="13.0531" gradientUnits="userSpaceOnUse">
<stop stop-color="#FFA434"/>
<stop offset="1" stop-color="#FFA434"/>
</linearGradient>
<linearGradient id="paint30_linear_1_11" x1="140.48" y1="183.704" x2="78.1405" y2="13.0535" gradientUnits="userSpaceOnUse">
<stop stop-color="#FFA434"/>
<stop offset="1" stop-color="#FFA434"/>
</linearGradient>
<linearGradient id="paint31_linear_1_11" x1="140.481" y1="183.703" x2="78.1414" y2="13.0532" gradientUnits="userSpaceOnUse">
<stop stop-color="#FFA434"/>
<stop offset="1" stop-color="#FFA434"/>
</linearGradient>
</defs>
</svg>
